<?xml version="1.0" standalone="no"?>
<!DOCTYPE svg PUBLIC "-//W3C//DTD SVG 1.1//EN"
  "http://www.w3.org/Graphics/SVG/1.1/DTD/svg11.dtd">
<svg width="78.90304565429688mm" height="43.67921066284179mm" viewBox="-42.5 -19.819334030151364 78.90304565429688 43.67921066284179" xmlns="http://www.w3.org/2000/svg" version="1.1">
	<title>svgOutput</title>
	<desc>made with tinkercad</desc>
<path d="M 34.04618453979492 -18.814702987670895 L 34.044151306152344 -18.809772491455075 L 33.961551666259766 -18.60934448242187 L 33.943275451660156 -18.5767707824707 L 33.85396194458008 -18.431999206542965 L 33.74351119995117 -18.252969741821286 L 33.63966369628906 -18.129354476928707 L 33.61707305908203 -18.103712081909176 L 33.44942092895508 -17.977674484252926 L 33.40863800048828 -17.950250625610348 L 33.37942886352539 -17.942300796508786 L 33.19065856933594 -17.887916564941403 L 33.186378479003906 -17.889760971069332 L 32.88676071166992 -18.018844604492184 L 32.82612991333008 -18.038045883178707 L 32.79155731201172 -18.07049179077148 L 32.77043914794922 -18.100423812866207 L 32.768001556396484 -18.103385925292965 L 32.57196044921875 -18.34162902832031 L 32.550010681152344 -18.384044647216793 L 32.523929595947266 -18.431999206542965 L 32.378963470458984 -18.698545455932614 L 32.374027252197266 -18.71182823181152 L 32.33466720581055 -18.819334030151364 L 32.768001556396484 -18.81690979003906 L 33.47854995727539 -18.812934875488278 L 34.04618453979492 -18.814702987670895 M 35.399471282958984 -16.831453323364254 L 35.392154693603516 -16.38400077819824 L 35.37727737426758 -15.473999977111813 L 35.38926696777344 -15.173549652099606 L 35.399471282958984 -14.917850494384762 L 35.403045654296875 -14.680000305175778 L 35.38623046875 -14.680000305175778 L 34.816001892089844 -14.680000305175778 L 34.79581832885742 -14.680000305175778 L 34.792442321777344 -14.680000305175778 L 34.76370620727539 -14.495295524597164 L 34.73600769042969 -14.33600044250488 L 34.61265182495117 -13.626553535461422 L 34.56766891479492 -13.40817832946777 L 34.543426513671875 -13.3120002746582 L 34.47052764892578 -13.022781372070309 L 34.40970230102539 -12.798887252807614 L 34.343074798583984 -12.614724159240719 L 34.23532485961914 -12.28800010681152 L 34.21928787231445 -12.239374160766598 L 34.173377990722656 -12.14569282531738 L 34.14161682128906 -12.08088397979736 L 33.95044708251953 -11.67106533050537 L 33.918617248535156 -11.62583541870117 L 33.881893157958984 -11.573651313781737 L 33.735877990722656 -11.364949226379393 L 33.73313903808594 -11.36226463317871 L 33.7021484375 -11.331914901733397 L 33.62492370605469 -11.263999938964842 L 33.50288772583008 -11.156675338745115 L 33.4033203125 -11.110479354858397 L 33.37174606323242 -11.08949851989746 L 33.34559631347656 -11.079271316528319 L 33.33037567138672 -11.076635360717772 L 33.21489334106445 -11.056630134582518 L 33.17559814453125 -11.054200172424315 L 33.00407791137695 -11.090656280517576 L 32.96297073364258 -11.101134300231932 L 32.795936584472656 -11.216246604919432 L 32.768001556396484 -11.234840393066404 L 32.75005340576172 -11.246785163879393 L 32.74756622314453 -11.249579429626463 L 32.7347297668457 -11.263999938964842 L 32.690757751464844 -11.313384056091307 L 32.56200408935547 -11.4529333114624 L 32.55143737792969 -11.467506408691404 L 32.5460205078125 -11.475951194763182 L 32.41758728027344 -11.676135063171385 L 32.342159271240234 -11.808946609497069 L 32.173763275146484 -12.191345214843746 L 32.13381576538086 -12.28800010681152 L 32.090187072753906 -12.393558502197262 L 32.009117126464844 -12.650216102600094 L 31.83160972595215 -13.3120002746582 L 31.823217391967773 -13.343290328979489 L 31.750408172607422 -13.640653610229489 L 31.643037796020508 -14.263780593872067 L 31.63097381591797 -14.33600044250488 L 31.586076736450195 -14.604771614074703 L 31.575637817382812 -14.680000305175778 L 30.719999313354492 -14.680000305175778 L 30.311708450317383 -14.680000305175778 L 30.175386428833008 -14.33600044250488 L 30.01888656616211 -13.941084861755368 L 29.97222137451172 -13.82329940795898 L 29.6630802154541 -13.045392990112301 L 29.662015914916992 -13.0427131652832 L 29.662015914916992 -13.042797088623043 L 29.660999298095703 -13.267000198364254 L 29.6630802154541 -13.52004241943359 L 29.66396141052246 -13.536000251770016 L 29.6630802154541 -13.60107612609863 L 29.6630802154541 -14.33600044250488 L 29.6630802154541 -14.680000305175778 L 29.6630802154541 -15.48159313201904 L 29.660999298095703 -15.602000236511227 L 29.661752700805664 -15.729999542236325 L 29.662015914916992 -15.774713516235348 L 29.904117584228516 -16.38400077819824 L 29.971752166748047 -16.554212570190426 L 30.00849723815918 -16.646633148193356 L 30.311870574951172 -17.412000656127926 L 30.719999313354492 -17.412000656127926 L 31.5734920501709 -17.412000656127926 L 31.575679779052734 -17.412000656127926 L 31.62584686279297 -17.102191925048825 L 31.74444007873535 -16.40041351318359 L 31.74833106994629 -16.38400077819824 L 31.848684310913086 -15.96065521240234 L 31.964509963989258 -15.511735916137692 L 31.997278213500977 -15.415422439575192 L 32.016971588134766 -15.359999656677243 L 32.17224884033203 -14.922967910766598 L 32.262237548828125 -14.703497886657711 L 32.43113327026367 -14.40014839172363 L 32.47007751464844 -14.33600044250488 L 32.54682159423828 -14.209577560424801 L 32.679779052734375 -14.050893783569332 L 32.75519943237305 -13.971752166748043 L 32.75947952270508 -13.967259407043453 L 32.768001556396484 -13.96197414398193 L 32.83027648925781 -13.923334121704098 L 32.97106170654297 -13.832537651062008 L 33.064659118652344 -13.807618141174313 L 33.166526794433594 -13.78584003448486 L 33.26108932495117 -13.79558944702148 L 33.3507080078125 -13.816070556640621 L 33.492645263671875 -13.885495185852047 L 33.544437408447266 -13.915814399719235 L 33.630828857421875 -13.992885589599606 L 33.68964767456055 -14.069262504577633 L 33.79199981689453 -14.182838439941403 L 33.84195327758789 -14.2382698059082 L 33.85383605957031 -14.251457214355465 L 33.900856018066406 -14.33600044250488 L 33.971717834472656 -14.463421821594235 L 34.090667724609375 -14.669803619384762 L 34.09467315673828 -14.680000305175778 L 34.18339157104492 -14.905825614929196 L 34.2882194519043 -15.155589103698727 L 34.3074836730957 -15.221676826477047 L 34.347801208496094 -15.359999656677243 L 34.356876373291016 -15.391124725341793 L 34.594215393066406 -16.275627136230465 L 34.61794662475586 -16.38400077819824 L 34.642181396484375 -16.49466514587402 L 34.76218032836914 -17.22267341613769 L 34.79228210449219 -17.412000656127926 L 34.79338836669922 -17.412000656127926 L 34.816001892089844 -17.412000656127926 L 35.403045654296875 -17.412000656127926 L 35.399471282958984 -16.831453323364254 M 34.79155349731445 -10.453134536743162 L 34.796512603759766 -10.477626800537108 L 34.798954010009766 -10.49752616882324 L 34.816001892089844 -10.497517585754393 L 34.88679885864258 -10.49748134613037 L 34.886634826660156 -10.497312545776365 L 34.8853874206543 -10.49601078033447 L 34.816001892089844 -10.423585891723631 L 34.80662155151367 -10.413797378540037 L 34.786537170410156 -10.396226882934569 L 34.781700134277344 -10.39199638366699 L 34.79155349731445 -10.453134536743162 M 31.58225440979004 -10.497731208801268 L 31.623170852661133 -10.239999771118162 L 31.639354705810547 -10.138061523437498 L 31.58382797241211 -10.135727882385252 L 31.551176071166992 -10.134355545043944 L 31.439109802246094 -10.12964630126953 L 31.22382164001465 -10.1205997467041 L 30.719999313354492 -10.1205997467041 L 30.623682022094727 -10.1205997467041 L 30.464500427246094 -10.239999771118162 L 30.446659088134766 -10.253381729125975 L 30.331443786621094 -10.355437278747557 L 30.285869598388672 -10.398814201354979 L 30.31843376159668 -10.49680423736572 L 30.3184814453125 -10.496950149536131 L 30.344221115112305 -10.496970176696776 L 30.462907791137695 -10.497731208801268 L 30.473609924316406 -10.497799873352049 L 30.535518646240234 -10.497731208801268 L 30.719999313354492 -10.497731208801268 L 31.58225440979004 -10.497731208801268 M -34.757957458496094 -16.412000656127926 L -34.75812911987305 -16.38400077819824 L -34.76152801513672 -15.831453323364254 L -34.78202438354492 -14.604999542236325 L -34.78421401977539 -14.473999977111813 L -34.77858352661133 -14.33600044250488 L -34.76152801513672 -13.917850494384762 L -34.757957458496094 -13.680000305175778 L -34.816001892089844 -13.680000305175778 L -35.36882019042969 -13.680000305175778 L -35.39729690551758 -13.495295524597164 L -35.42916488647461 -13.3120002746582 L -35.5483512878418 -12.626553535461422 L -35.593650817871094 -12.40817832946777 L -35.6241569519043 -12.28800010681152 L -35.691471099853516 -12.022781372070309 L -35.752296447753906 -11.798887252807615 L -35.81858444213867 -11.61472415924072 L -35.94171142578125 -11.2393741607666 L -35.986846923828125 -11.147275924682615 L -36.01938247680664 -11.080883979797362 L -36.21055603027344 -10.67106533050537 L -36.24238204956055 -10.62583541870117 L -36.27910614013672 -10.573651313781737 L -36.42512130737305 -10.364949226379393 L -36.42786407470703 -10.36226463317871 L -36.4588508605957 -10.331914901733397 L -36.5633659362793 -10.239999771118162 L -36.658111572265625 -10.156675338745115 L -36.7576789855957 -10.110479354858397 L -36.78925323486328 -10.08949851989746 L -36.81540298461914 -10.079271316528319 L -36.83062744140625 -10.076635360717772 L -36.86399841308594 -10.0708532333374 L -36.946109771728516 -10.056630134582518 L -36.98540115356445 -10.054200172424315 L -37.157711029052734 -10.090656280517576 L -37.199031829833984 -10.101134300231932 L -37.366065979003906 -10.216246604919432 L -37.40155792236328 -10.239999771118162 L -37.40671920776367 -10.243454933166502 L -37.41169738769531 -10.246785163879393 L -37.47124099731445 -10.313384056091307 L -37.59999465942383 -10.4529333114624 L -37.610267639160156 -10.467506408691404 L -37.743412017822266 -10.676135063171385 L -37.818843841552734 -10.808946609497069 L -37.987239837646484 -11.191345214843748 L -38.017425537109375 -11.263999938964842 L -38.07125473022461 -11.393558502197264 L -38.151885986328125 -11.650216102600096 L -38.32295227050781 -12.28800010681152 L -38.33778381347656 -12.343290328979489 L -38.41059112548828 -12.640653610229489 L -38.51795959472656 -13.263780593872067 L -38.52608108520508 -13.3120002746582 L -38.57537841796875 -13.604771614074703 L -38.585819244384766 -13.680000305175778 L -38.9119987487793 -13.680000305175778 L -39.84929275512695 -13.680000305175778 L -40.142974853515625 -12.941084861755368 L -40.18966293334961 -12.82329940795898 L -40.40182113647461 -12.28800010681152 L -40.49903869628906 -12.0427131652832 L -40.5 -12.267000198364254 L -40.49982833862305 -12.28800010681152 L -40.497920989990234 -12.52004241943359 L -40.49705505371094 -12.536000251770016 L -40.497920989990234 -12.60107612609863 L -40.497920989990234 -13.680000305175778 L -40.497920989990234 -14.33600044250488 L -40.497920989990234 -14.48159313201904 L -40.5 -14.602000236511227 L -40.49903869628906 -14.774713516235348 L -40.445560455322266 -14.909660339355465 L -40.19013977050781 -15.554212570190426 L -40.15350341796875 -15.646634101867672 L -39.86044692993164 -16.38400077819824 L -39.84931945800781 -16.412000656127926 L -38.9119987487793 -16.412000656127926 L -38.73005294799805 -16.412000656127926 L -38.58561325073242 -16.412000656127926 L -38.581050872802734 -16.38400077819824 L -38.535152435302734 -16.102191925048825 L -38.41655731201172 -15.400412559509274 L -38.31282043457031 -14.96065521240234 L -38.19696807861328 -14.511735916137692 L -38.16472244262695 -14.415422439575192 L -38.13650131225586 -14.33600044250488 L -37.989749908447266 -13.922967910766598 L -37.899356842041016 -13.703497886657711 L -37.88800048828125 -13.68310165405273 L -37.73046875 -13.40014839172363 L -37.67695617675781 -13.3120002746582 L -37.614776611328125 -13.209577560424801 L -37.48122024536133 -13.050893783569332 L -37.406307220458984 -12.972282409667965 L -37.401519775390625 -12.967259407043453 L -37.33072280883789 -12.923334121704098 L -37.19052505493164 -12.832537651062008 L -37.09634017944336 -12.807618141174313 L -36.99447250366211 -12.78584003448486 L -36.89990997314453 -12.79558944702148 L -36.86399841308594 -12.803795814514157 L -36.8102912902832 -12.816070556640621 L -36.66891860961914 -12.885495185852047 L -36.61712646484375 -12.915814399719235 L -36.530643463134766 -12.992885589599606 L -36.47188949584961 -13.069262504577633 L -36.320411682128906 -13.236801147460934 L -36.30716323852539 -13.251457214355465 L -36.27363204956055 -13.3120002746582 L -36.18977355957031 -13.463421821594235 L -36.07080078125 -13.669803619384762 L -35.97760772705078 -13.905825614929196 L -35.87337112426758 -14.155589103698727 L -35.85755920410156 -14.209855079650875 L -35.82080841064453 -14.33600044250488 L -35.80474853515625 -14.391124725341793 L -35.5667839050293 -15.275627136230465 L -35.51881790161133 -15.494666099548336 L -35.39881896972656 -16.22267341613769 L -35.3731689453125 -16.38400077819824 L -35.368717193603516 -16.412000656127926 L -35.367610931396484 -16.412000656127926 L -34.816001892089844 -16.412000656127926 L -34.757957458496094 -16.412000656127926 M -36.11481475830078 -17.814702987670895 L -36.11684799194336 -17.809772491455075 L -36.19944763183594 -17.60934448242187 L -36.21772384643555 -17.5767707824707 L -36.32184600830078 -17.40800094604492 L -36.41748809814453 -17.252969741821286 L -36.52133560180664 -17.129354476928707 L -36.54392623901367 -17.103712081909176 L -36.711578369140625 -16.977674484252926 L -36.75236511230469 -16.950250625610348 L -36.78157043457031 -16.942300796508786 L -36.86399841308594 -16.91855430603027 L -36.970340728759766 -16.887916564941403 L -36.9746208190918 -16.889760971069332 L -37.27423858642578 -17.018844604492184 L -37.335052490234375 -17.038045883178707 L -37.369441986083984 -17.07049179077148 L -37.39056396484375 -17.100423812866207 L -37.58992385864258 -17.34162902832031 L -37.61188507080078 -17.384044647216793 L -37.62484359741211 -17.40800094604492 L -37.78203582763672 -17.698545455932614 L -37.7869987487793 -17.71182823181152 L -37.80003356933594 -17.74745178222656 L -37.826332092285156 -17.819334030151364 L -36.86399841308594 -17.813951492309567 L -36.68245315551758 -17.812934875488278 L -36.11481475830078 -17.814702987670895 M -35.37934875488281 -9.39199638366699 L -35.369449615478516 -9.453134536743162 L -35.36450958251953 -9.477626800537108 L -35.3620491027832 -9.49752616882324 L -35.27420425415039 -9.49748134613037 L -35.35441589355469 -9.413797378540037 L -35.374595642089844 -9.396150588989256 L -35.37934875488281 -9.39199638366699 M -38.521644592285156 -9.138061523437498 L -38.9119987487793 -9.12165832519531 L -38.93717956542969 -9.1205997467041 L -39.537315368652344 -9.1205997467041 L -39.71434020996094 -9.253381729125975 L -39.82955551147461 -9.355437278747557 L -39.87522888183594 -9.398814201354979 L -39.84260177612305 -9.49680423736572 L -39.842552185058594 -9.496950149536131 L -39.81682205200195 -9.496970176696776 L -39.68746566772461 -9.497799873352049 L -39.62556838989258 -9.497731208801268 L -38.9119987487793 -9.497731208801268 L -38.58793640136719 -9.497731208801268 L -38.57883071899414 -9.497731208801268 L -38.52167510986328 -9.13824939727783 L -38.521644592285156 -9.138061523437498 M 34.04618453979492 14.166000366210934 L 34.044158935546875 14.170925140380856 L 33.976226806640625 14.33600044250488 L 33.961551666259766 14.37165546417236 L 33.943275451660156 14.404230117797848 L 33.74351119995117 14.728031158447262 L 33.63966369628906 14.850795745849606 L 33.61707305908203 14.876287460327145 L 33.44942092895508 15.003144264221188 L 33.40863800048828 15.030556678771969 L 33.37942886352539 15.03869819641113 L 33.19065856933594 15.093083381652828 L 33.18817901611328 15.092006683349606 L 32.88676071166992 14.96133708953857 L 32.82612991333008 14.94213485717773 L 32.79155731201172 14.90950775146484 L 32.77043914794922 14.879575729370114 L 32.768001556396484 14.876613616943356 L 32.57196044921875 14.638371467590328 L 32.550010681152344 14.5960578918457 L 32.48053741455078 14.468681335449215 L 32.40816879272461 14.33600044250488 L 32.378963470458984 14.282453536987301 L 32.374027252197266 14.269144058227536 L 32.33466720581055 14.161499977111813 L 32.768001556396484 14.16388893127441 L 33.47854995727539 14.167806625366207 L 34.04618453979492 14.166000366210934 M 35.399471282958984 16.14954566955566 L 35.39563751220703 16.38400077819824 L 35.37727737426758 17.50699996948242 L 35.38926696777344 17.80745124816894 L 35.399471282958984 18.063150405883786 L 35.403045654296875 18.30100059509277 L 35.38623046875 18.30100059509277 L 34.816001892089844 18.30100059509277 L 34.792442321777344 18.30100059509277 L 34.772029876708984 18.431999206542965 L 34.76370620727539 18.48543548583984 L 34.61265182495117 19.354125976562496 L 34.591697692871094 19.455999374389645 L 34.56766891479492 19.572822570800778 L 34.47052764892578 19.958217620849606 L 34.40970230102539 20.1821117401123 L 34.343074798583984 20.366275787353512 L 34.30556869506836 20.479999542236325 L 34.21928787231445 20.74162673950195 L 34.173377990722656 20.835306167602536 L 34.14161682128906 20.90011596679687 L 33.95044708251953 21.30923271179199 L 33.91996383666992 21.352415084838864 L 33.881893157958984 21.406349182128903 L 33.81381607055664 21.503999710083004 L 33.735877990722656 21.615797042846676 L 33.729949951171875 21.62160491943359 L 33.7021484375 21.64883422851562 L 33.605411529541016 21.73392868041992 L 33.50288772583008 21.824110031127926 L 33.4033203125 21.869520187377926 L 33.37174606323242 21.890705108642575 L 33.34559631347656 21.900728225708004 L 33.21489334106445 21.92337036132812 L 33.17559814453125 21.92600059509277 L 33.00407791137695 21.889551162719723 L 32.96297073364258 21.878866195678707 L 32.795936584472656 21.763753890991207 L 32.768001556396484 21.74515914916992 L 32.75005340576172 21.733213424682614 L 32.74756622314453 21.730421066284176 L 32.690757751464844 21.666616439819332 L 32.56200408935547 21.527748107910153 L 32.55143737792969 21.51320075988769 L 32.545536041259766 21.503999710083004 L 32.41758728027344 21.304529190063473 L 32.342159271240234 21.171697616577145 L 32.173763275146484 20.789236068725582 L 32.090187072753906 20.586999893188473 L 32.056331634521484 20.479999542236325 L 32.009117126464844 20.330783843994137 L 31.823217391967773 19.637708663940426 L 31.778806686401367 19.455999374389645 L 31.750408172607422 19.33980560302734 L 31.743999481201172 19.30264854431152 L 31.643037796020508 18.717218399047848 L 31.59539222717285 18.431999206542965 L 31.586076736450195 18.376228332519528 L 31.575637817382812 18.30100059509277 L 31.571258544921875 18.30100059509277 L 30.719999313354492 18.30100059509277 L 30.311708450317383 18.30100059509277 L 30.259735107421875 18.431999206542965 L 30.01888656616211 19.039052963256832 L 29.97222137451172 19.15670013427734 L 29.6630802154541 19.93554878234863 L 29.662015914916992 19.938232421874996 L 29.662015914916992 19.938150405883786 L 29.660999298095703 19.714000701904293 L 29.6630802154541 19.460958480834957 L 29.66396141052246 19.444999694824215 L 29.6630802154541 19.379894256591793 L 29.6630802154541 18.431999206542965 L 29.6630802154541 18.30100059509277 L 29.6630802154541 17.499376296997067 L 29.660999298095703 17.378499984741207 L 29.66200828552246 17.206598281860348 L 29.662015914916992 17.205286026000973 L 29.971752166748047 16.425893783569332 L 29.9884090423584 16.38400077819824 L 30.00849723815918 16.333475112915036 L 30.311870574951172 15.569000244140621 L 30.719999313354492 15.569000244140621 L 31.5734920501709 15.569000244140621 L 31.575679779052734 15.569000244140621 L 31.62584686279297 15.878808021545407 L 31.711219787597656 16.38400077819824 L 31.74444007873535 16.580587387084957 L 31.848684310913086 17.020345687866207 L 31.94870376586914 17.40800094604492 L 31.964509963989258 17.469264984130856 L 31.997278213500977 17.565576553344723 L 32.17224884033203 18.05803298950195 L 32.262237548828125 18.277093887329098 L 32.34865188598633 18.431999206542965 L 32.43113327026367 18.57985115051269 L 32.54682159423828 18.77082252502441 L 32.679779052734375 18.929508209228512 L 32.75514602661133 19.008213043212887 L 32.75947952270508 19.012741088867184 L 32.768001556396484 19.018026351928707 L 32.83027648925781 19.056665420532223 L 32.97106170654297 19.14746284484863 L 33.064659118652344 19.172382354736325 L 33.166526794433594 19.194160461425778 L 33.26108932495117 19.184984207153317 L 33.3507080078125 19.164503097534176 L 33.492645263671875 19.095066070556637 L 33.544437408447266 19.065185546874996 L 33.630828857421875 18.98811531066894 L 33.68964767456055 18.911737442016598 L 33.79199981689453 18.7978401184082 L 33.84281539916992 18.741291046142575 L 33.85383605957031 18.72902679443359 L 33.971717834472656 18.51708602905273 L 34.02063751220703 18.431999206542965 L 34.090667724609375 18.31019592285156 L 34.18339157104492 18.07417488098144 L 34.2882194519043 17.82500076293945 L 34.308284759521484 17.756284713745114 L 34.356876373291016 17.58987426757812 L 34.594215393066406 16.70468139648437 L 34.642181396484375 16.485607147216793 L 34.6589469909668 16.38400077819824 L 34.76218032836914 15.758327484130856 L 34.79228210449219 15.569000244140621 L 34.816001892089844 15.569000244140621 L 35.403045654296875 15.569000244140621 L 35.399471282958984 16.14954566955566 M 34.88679885864258 22.483518600463864 L 34.886390686035156 22.483942031860348 L 34.886268615722656 22.484069824218746 L 34.885963439941406 22.48439025878906 L 34.844181060791016 22.527999877929684 L 34.816001892089844 22.557413101196286 L 34.80662155151367 22.567203521728512 L 34.781700134277344 22.588954925537106 L 34.79153060913086 22.527999877929684 L 34.79155349731445 22.527866363525387 L 34.796512603759766 22.503349304199215 L 34.798954010009766 22.48347473144531 L 34.816001892089844 22.48348236083984 L 34.88679885864258 22.483518600463864 M 31.58225440979004 22.48226928710937 L 31.589508056640625 22.527999877929684 L 31.639354705810547 22.84222030639648 L 31.632726669311523 22.842502593994137 L 31.22382164001465 22.859876632690426 L 30.719999313354492 22.859876632690426 L 30.623682022094727 22.859876632690426 L 30.446659088134766 22.726617813110348 L 30.331443786621094 22.624563217163082 L 30.286348342895508 22.581739425659176 L 30.286073684692383 22.581480026245114 L 30.285869598388672 22.581285476684567 L 30.303558349609375 22.527999877929684 L 30.31842041015625 22.48323059082031 L 30.3184814453125 22.48304939270019 L 30.318756103515625 22.483051300048825 L 30.319156646728516 22.483051300048825 L 30.344221115112305 22.483072280883786 L 30.473609924316406 22.48227500915527 L 30.535518646240234 22.48226928710937 L 30.719999313354492 22.48226928710937 L 31.573759078979492 22.48226928710937 L 31.58225440979004 22.48226928710937 M -35.76152801513672 15.149546623229977 L -35.78215789794922 16.38400077819824 L -35.78421401977539 16.50699996948242 L -35.77176284790039 16.81225776672363 L -35.76152801513672 17.063150405883786 L -35.757957458496094 17.30100059509277 L -35.7747688293457 17.30100059509277 L -35.84000015258789 17.30100059509277 L -36.36882019042969 17.30100059509277 L -36.385337829589844 17.40800094604492 L -36.39729690551758 17.48543548583984 L -36.5483512878418 18.354125976562496 L -36.56447982788086 18.431999206542965 L -36.593650817871094 18.572822570800778 L -36.691471099853516 18.958217620849606 L -36.752296447753906 19.1821117401123 L -36.81858444213867 19.366275787353512 L -36.86399841308594 19.504720687866207 L -36.94171142578125 19.74162673950195 L -36.986846923828125 19.8337230682373 L -37.01938247680664 19.90011596679687 L -37.21055603027344 20.30923271179199 L -37.24103546142578 20.352415084838864 L -37.27910614013672 20.406349182128903 L -37.33045196533203 20.479999542236325 L -37.42512130737305 20.615797042846676 L -37.43104934692383 20.62160491943359 L -37.4588508605957 20.64883422851562 L -37.55558776855469 20.73392868041992 L -37.658111572265625 20.824110031127926 L -37.7576789855957 20.869520187377926 L -37.78925323486328 20.890705108642575 L -37.81540298461914 20.900728225708004 L -37.946109771728516 20.92337036132812 L -37.98540115356445 20.92600059509277 L -38.157711029052734 20.889551162719723 L -38.199031829833984 20.878866195678707 L -38.366065979003906 20.763753890991207 L -38.41169738769531 20.733213424682614 L -38.413814544677734 20.730846405029293 L -38.47124099731445 20.666616439819332 L -38.59999465942383 20.527748107910153 L -38.610267639160156 20.51320075988769 L -38.61492156982422 20.50590896606445 L -38.63145446777344 20.479999542236325 L -38.743412017822266 20.304529190063473 L -38.818843841552734 20.171697616577145 L -38.9119987487793 19.960117340087887 L -38.987239837646484 19.789236068725582 L -39.07125473022461 19.586999893188473 L -39.151885986328125 19.330783843994137 L -39.33778381347656 18.637708663940426 L -39.388057708740234 18.431999206542965 L -39.41059112548828 18.33980560302734 L -39.51795959472656 17.717218399047848 L -39.570030212402344 17.40800094604492 L -39.57537841796875 17.376228332519528 L -39.585819244384766 17.30100059509277 L -39.58974075317383 17.30100059509277 L -39.93600082397461 17.30100059509277 L -40.84929275512695 17.30100059509277 L -40.891868591308594 17.40800094604492 L -40.959999084472656 17.579221725463864 L -41.07632064819336 17.87154960632324 L -41.142974853515625 18.039052963256832 L -41.18966293334961 18.15670013427734 L -41.298641204833984 18.431999206542965 L -41.497920989990234 18.93540573120117 L -41.49903869628906 18.938232421874996 L -41.5 18.714000701904293 L -41.497920989990234 18.460958480834957 L -41.49705505371094 18.444999694824215 L -41.497230529785156 18.431999206542965 L -41.497920989990234 18.379894256591793 L -41.497920989990234 16.499376296997067 L -41.49990463256836 16.38400077819824 L -41.5 16.378499984741207 L -41.49903869628906 16.205442428588864 L -41.49903869628906 16.205286026000973 L -41.19013977050781 15.425893783569332 L -41.15350341796875 15.333474159240719 L -40.959999084472656 14.84716415405273 L -40.84931945800781 14.569000244140621 L -39.58561325073242 14.569000244140621 L -39.535152435302734 14.878808021545407 L -39.41655731201172 15.580587387084957 L -39.31282043457031 16.020345687866207 L -39.218971252441406 16.38400077819824 L -39.19696807861328 16.469264984130856 L -39.16472244262695 16.565576553344723 L -38.989749908447266 17.05803298950195 L -38.9119987487793 17.246452331542965 L -38.899356842041016 17.277093887329098 L -38.826332092285156 17.40800094604492 L -38.73046875 17.57985115051269 L -38.614776611328125 17.77082252502441 L -38.48122024536133 17.929508209228512 L -38.40636444091797 18.0076789855957 L -38.401519775390625 18.012741088867184 L -38.33072280883789 18.056665420532223 L -38.19052505493164 18.14746284484863 L -38.09634017944336 18.172382354736325 L -37.99447250366211 18.194160461425778 L -37.89990997314453 18.184984207153317 L -37.88800048828125 18.182262420654293 L -37.8102912902832 18.164503097534176 L -37.66891860961914 18.095066070556637 L -37.61712646484375 18.065185546874996 L -37.530643463134766 17.98811531066894 L -37.47188949584961 17.911737442016598 L -37.319557189941406 17.74277305603027 L -37.30716323852539 17.72902679443359 L -37.18977355957031 17.51708602905273 L -37.127044677734375 17.40800094604492 L -37.07080078125 17.31019592285156 L -36.97760772705078 17.07417488098144 L -36.87337112426758 16.82500076293945 L -36.86399841308594 16.792894363403317 L -36.85679626464844 16.768207550048825 L -36.80474853515625 16.58987426757812 L -36.74940490722656 16.38400077819824 L -36.5667839050293 15.704682350158688 L -36.51881790161133 15.485607147216793 L -36.39881896972656 14.758327484130856 L -36.368717193603516 14.569000244140621 L -35.757957458496094 14.569000244140621 L -35.76152801513672 15.149546623229977 M -37.11481475830078 13.166000366210934 L -37.11684036254883 13.170925140380856 L -37.17490005493164 13.3120002746582 L -37.19944763183594 13.37165546417236 L -37.21772384643555 13.404230117797848 L -37.41748809814453 13.728031158447262 L -37.52133560180664 13.850795745849606 L -37.54392623901367 13.876287460327145 L -37.711578369140625 14.003144264221188 L -37.751651763916016 14.030077934265133 L -37.75236511230469 14.030556678771969 L -37.78157043457031 14.03869819641113 L -37.911075592041016 14.076008796691891 L -37.970340728759766 14.093083381652828 L -38.27423858642578 13.96133708953857 L -38.335052490234375 13.94213485717773 L -38.369441986083984 13.90950775146484 L -38.39056396484375 13.879575729370114 L -38.58992385864258 13.638371467590328 L -38.61188507080078 13.5960578918457 L -38.682769775390625 13.465414047241207 L -38.76600646972656 13.3120002746582 L -38.78203582763672 13.282453536987301 L -38.7869987487793 13.269144058227536 L -38.826332092285156 13.161499977111813 L -37.68245315551758 13.167806625366207 L -37.11481475830078 13.166000366210934 M -36.369449615478516 21.527866363525387 L -36.36450958251953 21.503349304199215 L -36.3620491027832 21.48347473144531 L -36.27420425415039 21.483518600463864 L -36.35441589355469 21.567203521728512 L -36.37460708618164 21.58481979370117 L -36.37934875488281 21.588954925537106 L -36.369449615478516 21.527866363525387 M -40.842552185058594 21.48304939270019 L -40.81682205200195 21.483072280883786 L -40.68746566772461 21.48227500915527 L -40.62556838989258 21.48226928710937 L -39.58809280395508 21.48226928710937 L -39.57883071899414 21.48226928710937 L -39.521644592285156 21.84222030639648 L -39.52886962890625 21.842527389526364 L -39.93717956542969 21.859876632690426 L -40.537315368652344 21.859876632690426 L -40.71434020996094 21.726617813110348 L -40.82955551147461 21.624563217163082 L -40.87522888183594 21.581285476684567 L -40.842613220214844 21.48323059082031 L -40.842552185058594 21.48304939270019 z" fill="none" stroke="rgb(255,0,0)" stroke-width="0.001mm" />
</svg>